<?xml version="1.0" standalone="no"?>
<!DOCTYPE svg PUBLIC "-//W3C//DTD SVG 20010904//EN"
 "http://www.w3.org/TR/2001/REC-SVG-20010904/DTD/svg10.dtd">
<svg version="1.0" xmlns="http://www.w3.org/2000/svg"
 width="400.000000pt" height="400.000000pt" viewBox="0 0 400.000000 400.000000"
 preserveAspectRatio="xMidYMid meet">
<metadata>
Created by potrace 1.11, written by Peter Selinger 2001-2013
</metadata>
<g transform="translate(0.000000,400.000000) scale(0.100000,-0.100000)"
fill="#000000" stroke="none">
<path d="M0 2000 l0 -2000 2000 0 2000 0 0 2000 0 2000 -2000 0 -2000 0 0
-2000z m3476 1394 c68 -19 106 -51 136 -112 l23 -47 0 -1070 c0 -999 -1 -1073
-18 -1116 -20 -54 -57 -91 -112 -116 -37 -17 -86 -18 -603 -21 l-563 -3 5 -27
c3 -15 8 -70 12 -122 11 -162 38 -203 199 -301 89 -54 109 -76 99 -103 -6 -14
-74 -16 -658 -16 -455 0 -655 3 -663 11 -22 22 2 51 91 105 158 97 190 141
201 274 3 41 8 98 11 127 l5 52 -568 4 c-419 2 -578 6 -606 16 -20 6 -53 28
-72 46 -68 68 -65 23 -65 1182 0 729 3 1057 11 1088 16 62 68 120 132 144 51
20 75 20 1500 20 1290 1 1455 -1 1503 -15z"/>
<path d="M526 3204 c-14 -14 -16 -107 -16 -874 0 -767 2 -860 16 -874 14 -14
159 -16 1449 -16 1396 0 1433 0 1456 19 l24 19 0 855 c0 709 -2 857 -14 870
-12 16 -126 17 -1457 17 -1298 0 -1444 -2 -1458 -16z m1644 -161 c40 -11 66
-26 95 -57 39 -41 53 -73 85 -203 l10 -42 58 -6 c209 -23 332 -83 332 -163 0
-26 -37 -71 -68 -83 -15 -6 -294 -9 -694 -9 -719 0 -716 0 -752 51 -23 34 -20
76 8 104 51 51 101 66 323 100 l41 6 17 77 c27 120 62 174 139 214 73 37 289
43 406 11z m-140 -652 c165 8 385 2 409 -10 24 -13 24 -23 3 -86 -6 -16 -18
-55 -26 -86 -22 -78 -57 -109 -134 -118 -84 -10 -166 1 -199 26 -29 20 -54 74
-73 151 -16 64 -40 53 -60 -28 -32 -125 -68 -151 -210 -151 -114 0 -143 14
-176 84 -13 29 -24 61 -24 72 0 11 -7 41 -17 67 -29 82 -4 90 267 80 85 -3
193 -3 240 -1z m176 -388 c88 -16 158 -33 161 -40 13 -34 -103 -233 -168 -287
-120 -101 -280 -111 -398 -26 -59 43 -209 280 -198 313 5 17 341 77 399 72 26
-2 117 -17 204 -32z"/>
<path d="M1647 2336 c-52 -19 -52 -20 -50 -78 4 -92 52 -129 159 -123 100 5
140 38 145 120 2 54 -1 62 -28 75 -43 19 -181 23 -226 6z"/>
<path d="M2117 2339 c-47 -14 -60 -37 -51 -94 8 -59 34 -90 84 -103 52 -13
138 -9 168 7 30 16 52 68 52 120 0 32 -5 44 -25 57 -31 20 -173 28 -228 13z"/>
<path d="M1923 1300 c-43 -22 -83 -83 -83 -128 0 -60 53 -128 109 -139 97 -19
171 41 171 137 0 111 -102 178 -197 130z"/>
</g>
</svg>
